<svg width="1077" height="157" viewBox="0 0 1077 157" fill="none" xmlns="http://www.w3.org/2000/svg">
<path fill-rule="evenodd" clip-rule="evenodd" d="M0 78V156H4.5H9V78V0H4.5H0V78ZM135.767 2.25C136.284 4.254 136.164 4.35 134.673 3.128C133.171 1.895 133 2.086 133 5C133 7.771 133.219 8.063 134.5 7C136.547 5.301 136.57 7.864 134.532 10.559C132.887 12.734 132.529 16.591 133.895 17.435C134.388 17.74 135.048 17.316 135.364 16.494C136.156 14.431 138.234 14.625 140.223 16.947C141.542 18.488 141.693 19.583 140.945 22.191C139.706 26.513 139.736 32 141 32C141.55 32 142.011 30.538 142.024 28.75C142.037 26.962 142.467 23.7 142.98 21.5C143.567 18.978 143.558 17.377 142.956 17.167C142.43 16.983 142 15.772 142 14.476C142 13.179 141.543 11.835 140.984 11.49C140.425 11.144 140.207 10.474 140.5 10C140.793 9.526 140.575 8.856 140.016 8.51C138.048 7.294 138.953 5.905 141 7C142.798 7.962 143 7.76 143 5C143 2.24 142.798 2.038 141 3C138.797 4.179 138.312 3.088 140.2 1.2C141.133 0.267 140.71 0 138.294 0C135.567 0 135.258 0.275 135.767 2.25ZM128 17C128 17.55 128.45 18 129 18C129.55 18 130 17.55 130 17C130 16.45 129.55 16 129 16C128.45 16 128 16.45 128 17ZM136.25 18.5C136.25 19.875 136.813 21 137.5 21C138.188 21 138.75 19.875 138.75 18.5C138.75 17.125 138.188 16 137.5 16C136.813 16 136.25 17.125 136.25 18.5ZM145 17C145 17.55 145.675 18 146.5 18C147.325 18 148 17.55 148 17C148 16.45 147.325 16 146.5 16C145.675 16 145 16.45 145 17ZM124 17.969C124 18.501 123.325 18.678 122.5 18.362C121.558 18 121 18.372 121 19.362C121 20.351 120.442 20.723 119.5 20.362C118.55 19.997 118 20.375 118 21.393C118 23.485 118.941 23.393 122 21C123.375 19.924 125.063 19.034 125.75 19.022C127.545 18.99 127.299 17 125.5 17C124.675 17 124 17.436 124 17.969ZM131.507 18.75C131.904 19.712 132.515 22.963 132.864 25.974C133.44 30.928 133.731 31.448 135.926 31.446C137.26 31.445 138.558 30.826 138.81 30.071C139.136 29.092 138.654 28.857 137.134 29.255C135.278 29.74 135 29.389 135 26.556C135 22.519 133.149 17 131.795 17C131.226 17 131.1 17.763 131.507 18.75ZM149 17.64C149 18.416 152.203 20.924 153.25 20.968C153.662 20.986 154 20.277 154 19.393C154 18.375 153.45 17.997 152.5 18.362C151.675 18.678 151 18.501 151 17.969C151 17.436 150.55 17 150 17C149.45 17 149 17.288 149 17.64ZM127 20.727C123.234 22.157 116.698 27.499 114.321 31.091C110.43 36.971 112.004 36.712 117.277 30.604C120.232 27.181 123.559 24.557 126.453 23.367C132.085 21.051 132.592 18.605 127 20.727ZM144.004 20.642C144.006 21.114 146.037 22.335 148.517 23.354C151.338 24.515 154.887 27.297 157.998 30.787C160.732 33.854 163.218 36.115 163.523 35.81C164.478 34.856 157.622 26.678 153.469 23.818C149.314 20.956 143.997 19.172 144.004 20.642ZM155 21.331C155 22.063 156.075 23.238 157.39 23.941C158.704 24.645 160.355 26.296 161.059 27.61C162.327 29.98 165 30.922 165 29C165 28.45 164.325 28 163.5 28C162.675 28 162 27.555 162 27.011C162 25.475 158.741 22.042 157.822 22.61C157.37 22.89 157 22.416 157 21.559C157 20.702 156.55 20 156 20C155.45 20 155 20.599 155 21.331ZM179 22C179 22.55 179.477 23 180.059 23C180.641 23 180.84 22.55 180.5 22C180.16 21.45 179.684 21 179.441 21C179.198 21 179 21.45 179 22ZM114.591 24.164C113.32 25.649 113.13 26.53 113.913 27.313C114.696 28.096 115 27.924 115 26.7C115 25.765 115.675 25 116.5 25C118.102 25 118.541 23.453 117.178 22.61C116.726 22.331 115.562 23.03 114.591 24.164ZM136.333 25C136.333 26.754 136.859 28 137.6 28C138.359 28 138.832 26.799 138.781 25C138.734 23.35 138.164 22 137.514 22C136.865 22 136.333 23.35 136.333 25ZM181 24.809C181 26.494 183.866 29.465 184.668 28.612C185.126 28.125 184.938 27.525 184.25 27.28C183.563 27.034 183 26.196 183 25.417C183 24.638 182.55 24 182 24C181.45 24 181 24.364 181 24.809ZM111 29C111 29.55 111.45 30 112 30C112.55 30 113 29.55 113 29C113 28.45 112.55 28 112 28C111.45 28 111 28.45 111 29ZM185.345 31.829C186.255 32.835 187 34.147 187 34.745C187 35.344 187.563 36.06 188.25 36.338C188.938 36.615 188.418 36.878 187.095 36.921C184.824 36.996 184.783 37.103 186.354 38.839C187.94 40.592 187.726 40.792 181.759 43.13C178.063 44.579 175.5 46.181 175.5 47.042C175.5 47.844 174.6 48.774 173.5 49.11C171.717 49.653 171.826 49.852 174.5 50.937C177.482 52.148 177.487 52.166 175.442 53.832C173.84 55.138 173.385 56.67 173.385 60.755C173.385 64.523 173.769 66 174.751 66C175.503 66 175.821 66.481 175.458 67.068C175.095 67.656 174.168 67.895 173.399 67.6C172.615 67.299 172 67.672 172 68.45C172 69.212 171.71 70.593 171.355 71.517C170.779 73.019 170.965 73.054 173.105 71.849C174.422 71.107 175.831 70.05 176.235 69.5C176.693 68.877 176.975 68.961 176.985 69.724C177.002 71.106 171.937 74 169.502 74C168.623 74 166.801 75.191 165.452 76.646C164.104 78.101 163 78.866 163 78.346C163 77.826 163.399 76.972 163.888 76.45C164.376 75.927 165.081 74.487 165.455 73.25C165.958 71.585 165.728 71 164.567 71C163.667 71 163 70.149 163 69C163 67.462 162.333 67 160.117 67C157.983 67 157.083 66.425 156.655 64.789L156.077 62.579L153.724 64.789C152.43 66.005 150.163 67 148.686 67C145.642 67 145.658 67.03 146.962 63.601C147.582 61.97 147.577 60.857 146.95 60.469C146.415 60.138 145.693 61.285 145.346 63.018C144.962 64.94 143.893 66.476 142.608 66.954C138.609 68.442 131.181 66.134 132.597 63.843C132.913 63.331 132.628 62.257 131.964 61.456C129.137 58.051 123.503 61.374 125.819 65.081C126.91 66.829 126.719 67 123.675 67C119.708 67 118.609 66.176 120.131 64.342C121.815 62.314 119.359 62.619 116.154 64.837C114.694 65.848 112.713 66.959 111.75 67.306C110.787 67.653 110 68.574 110 69.352C110 70.13 109.1 71.002 108 71.29C106.528 71.675 106 72.654 106 75C106 77.346 106.528 78.325 108 78.71C109.1 78.998 110.078 79.743 110.173 80.367C110.268 80.99 110.605 78.575 110.923 75L111.5 68.5L123.75 68.219L136 67.938V81.469V95H130.777C125.712 95 125.624 94.952 127.832 93.405C129.178 92.463 131.061 92.049 132.437 92.395C134.521 92.918 134.741 92.663 134.529 89.969C134.21 85.917 133.814 85.681 128.817 86.568C124.861 87.27 124.709 87.402 127 88.148C129.291 88.895 129.25 88.93 126.511 88.574C124.866 88.361 122.779 88.583 121.871 89.069C120.635 89.73 120.091 89.456 119.704 87.976C119.036 85.421 116.962 85.429 116.293 87.989C115.744 90.085 114 89.789 114 87.599C114 86.186 125.615 82.282 126.673 83.34C127.036 83.703 126.268 84 124.967 84C123.19 84 122.885 84.285 123.744 85.144C124.604 86.004 125.632 85.981 127.871 85.054C129.511 84.374 131.786 84.115 132.926 84.477C134.975 85.127 135.87 83.656 134.094 82.558C133.596 82.25 133.423 81.098 133.711 79.999C134.151 78.316 133.74 78 131.117 78C129.402 78 128 78.499 128 79.108C128 79.801 128.969 79.974 130.584 79.568C132.259 79.148 132.942 79.285 132.525 79.96C132.171 80.532 129.996 80.968 127.691 80.93C124.597 80.878 124.023 80.655 125.498 80.08C127.204 79.414 127.022 79.23 124.248 78.823C121.069 78.357 119.774 79.339 122.25 80.338C123.039 80.656 122.895 80.871 121.857 80.921C120.953 80.964 119.955 80.325 119.638 79.5C118.84 77.419 116.003 77.613 115.985 79.75C115.972 81.218 115.819 81.263 115.039 80.029C113.858 78.161 112.746 79.175 113.583 81.357C113.93 82.261 114.953 83.007 115.857 83.015C117.275 83.029 117.295 83.16 116.008 83.974C115.103 84.546 114.156 84.556 113.599 83.999C113.095 83.495 110.658 83.359 108.185 83.698C104.826 84.159 103.875 84.011 104.428 83.117C104.835 82.458 106.03 82.192 107.084 82.527C108.457 82.962 109 82.655 109 81.442C109 80.081 108.39 79.872 105.878 80.374C103.183 80.913 102.926 80.794 104.001 79.499C104.798 78.539 104.859 78 104.172 78C103.582 78 102.693 78.725 102.197 79.612C101.428 80.987 100.98 80.78 99.148 78.207C97.966 76.549 97 74.846 97 74.424C97 74.003 96.213 72.73 95.25 71.596C93.567 69.613 93.571 69.589 95.354 70.976C96.374 71.769 97.6 73.449 98.079 74.709C99.241 77.763 100.216 77.597 102.352 73.981C104.879 69.704 113.647 63.382 120.589 60.832C125.265 59.114 128.798 58.648 137.5 58.601C149.777 58.534 156.513 60.448 163.472 65.978C166.901 68.703 167.225 68.776 168.83 67.189C170.439 65.599 170.362 65.467 167.519 64.935C160.699 63.659 157.941 59.954 161.57 56.942C162.433 56.226 162.917 54.791 162.646 53.754C162.05 51.477 165.543 40.9 167.236 39.854C168.785 38.897 168.178 38.334 164.64 37.446C161.932 36.766 161.846 36.844 162.973 38.95C164.457 41.723 163.301 43.132 161.53 40.71C160.328 39.066 160.133 39.179 159.111 42.11C157.666 46.258 157.663 46.251 160 45C162.203 43.821 162.688 44.912 160.8 46.8C159.098 48.502 154.052 48.299 153.362 46.5C153.045 45.675 153.107 44.212 153.5 43.25C154.17 41.61 154.258 41.616 154.904 43.347C155.528 45.017 155.72 45.042 156.909 43.61C158.483 41.713 157.673 39 155.531 39C154.448 39 154 37.976 154 35.5C154 31.258 152.272 30.92 150.888 34.891C150.152 37.002 149.383 37.652 148.037 37.299C145.833 36.723 144.184 40.584 145.901 42.301C146.7 43.1 147 43.072 147 42.2C147 41.54 147.45 41 148 41C149.393 41 149.253 44.347 147.8 45.8C145.925 47.675 143.558 47.223 141.004 44.504C138.369 41.7 139.052 39.927 142.045 41.796C143.846 42.921 144 42.739 144 39.5C144 36.261 143.846 36.079 142.045 37.204C139.33 38.9 138.296 37.435 140.494 35.006C142.287 33.025 142.251 33 137.584 33C133.287 33 133 33.143 134.429 34.571C137.265 37.408 136.388 38.813 132.934 36.965C131.191 36.032 131 36.28 131 39.465C131 41.409 131.45 43 132 43C132.55 43 133 42.55 133 42C133 41.45 133.675 41 134.5 41C136.578 41 136.374 42.626 134 45C130.679 48.321 126 47.034 126 42.8C126 40.749 127.597 40.367 128.3 42.25C128.617 43.098 129 42.938 129.491 41.75C130.591 39.088 129.283 36.693 127.048 37.277C125.602 37.655 124.867 37.059 124.112 34.891C122.728 30.92 121 31.258 121 35.5C121 37.976 120.552 39 119.469 39C117.369 39 116.505 41.699 118.02 43.524C119.116 44.845 119.428 44.813 120.654 43.261C121.917 41.662 122.02 41.777 121.773 44.5C121.541 47.048 121.035 47.545 118.415 47.801C116.421 47.996 114.829 47.492 113.915 46.378C112.639 44.822 112.72 44.71 114.745 45.232C116.752 45.749 116.923 45.528 116.357 43.155C115.389 39.1 114.933 38.727 113.338 40.69C111.976 42.368 111.901 42.294 112.31 39.673C112.72 37.053 112.559 36.894 110.128 37.504C106.654 38.376 106.492 38.635 108.296 40.439C110.42 42.563 113.276 51.556 112.551 53.839C112.204 54.934 112.59 56.245 113.477 56.981C116.084 59.144 115.128 61.378 110.154 64.75C104.453 68.615 101 69.022 101 65.829C101 64.635 100.255 62.835 99.345 61.829C98.435 60.823 98.183 60 98.786 60C99.389 60 100.16 60.45 100.5 61C100.84 61.55 101.572 62 102.126 62C103.717 62 102.027 57.703 99.644 55.687L97.5 53.875L100 54.57C102.422 55.244 102.445 55.205 100.75 53.304C99.787 52.225 99 50.815 99 50.171C99 48.413 97.238 48.762 96.08 50.75C95.17 52.313 95.058 52.259 95.03 50.25C95.014 49.013 95.45 48 96 48C96.55 48 97 47.1 97 46C97 43.691 96.968 43.681 93.565 44.975C91.24 45.859 91 45.719 91 43.475C91 41.027 89.03 39.839 88.968 42.25C88.95 42.953 88.241 42.625 87.346 41.5C85.825 39.586 85.782 39.64 86.353 42.75C86.806 45.217 86.595 46 85.475 46C84.664 46 84.113 45.494 84.25 44.875C84.642 43.109 82.316 42.735 81.655 44.458C81.329 45.306 81.525 46 82.09 46C82.656 46 82.819 46.483 82.455 47.073C82.04 47.745 81.247 47.37 80.339 46.073C78.418 43.331 76.577 43.341 78.046 46.086C78.66 47.233 78.901 48.433 78.581 48.752C78.261 49.072 78 48.808 78 48.167C78 47.525 77.255 47 76.345 47C74.868 47 74.889 47.22 76.539 49.043C78.345 51.039 78.337 51.099 76.194 51.66C73.283 52.421 73.4 54.821 76.403 55.963C77.724 56.466 79.129 57.399 79.524 58.038C80.06 58.906 79.684 58.901 78.035 58.019C75.501 56.662 74.215 57.349 75.772 59.226C76.354 59.927 76.913 60.95 77.015 61.5C77.117 62.05 77.559 62.403 77.997 62.284C78.436 62.165 78.576 62.907 78.308 63.932C78.04 64.957 78.369 66.82 79.039 68.072L80.257 70.349L81.473 67.425L82.688 64.5L83.144 68.255C83.528 71.417 83.142 72.443 80.699 74.755C78.332 76.994 67.914 89.152 61.422 97.25C59.678 99.426 54.67 99.527 52.571 97.429C50.557 95.414 50.594 94.723 52.871 91.911C54.666 89.694 54.845 89.668 57.296 91.274C60.345 93.272 61.654 91.55 59.215 88.75C57.806 87.133 57.92 87 60.723 87C64.368 87 67.148 84.437 64.303 83.7C62.784 83.306 62.83 83.214 64.595 83.116C65.747 83.052 67.541 82.06 68.581 80.91L70.472 78.821L66.645 79.539L62.817 80.257L66.409 75.552C68.384 72.964 70 69.745 70 68.399C70 65.044 63.414 55.479 62.587 57.634C61.834 59.596 57.748 58.805 53.75 55.923C51.071 53.991 51 53.989 51 55.848C51 56.897 51.696 58.333 52.547 59.039C53.684 59.982 53.781 60.518 52.912 61.054C52.101 61.556 52.4 62.144 53.865 62.928C55.137 63.608 56 65.043 56 66.476C56 67.799 56.45 69.16 57 69.5C57.55 69.84 58 69.486 58 68.714C58 67.942 58.863 66.529 59.917 65.575C61.397 64.235 62.281 64.08 63.799 64.893C68.288 67.295 66.876 71.463 58.781 79.697C54.715 83.834 53.317 84.705 51.934 83.965C50.514 83.205 50.289 83.387 50.701 84.965C50.979 86.026 50.427 88.934 49.475 91.427C47.834 95.724 47.834 96.097 49.474 98.6C50.425 100.052 52.054 101.463 53.092 101.734C54.566 102.12 54.842 102.807 54.349 104.864L53.718 107.5L56.109 105.435C57.424 104.299 59.85 102.54 61.5 101.527C63.15 100.514 64.921 98.971 65.436 98.099C66.163 96.868 66.65 97.601 67.611 101.369C69.075 107.107 68.617 108.807 65.39 109.617C64.075 109.947 63 110.546 63 110.948C63 111.35 61.875 112.192 60.5 112.818C57.436 114.214 57.015 117.491 60 116.71C61.1 116.423 62 116.543 62 116.977C62 117.411 61.1 118.002 60 118.29C58.778 118.609 58 119.654 58 120.974C58 122.68 58.421 123.001 60 122.5C62.352 121.754 62.645 123.22 60.5 125C58.744 126.457 58.683 126.981 60.034 129C60.903 130.298 61.237 130.239 62.519 128.559C63.69 127.025 64 126.943 64 128.169C64 130.907 70.371 136.75 73.357 136.75C75.96 136.75 76.007 136.665 74.387 134.875C72.459 132.745 72.803 132.594 76.435 133.975C78.806 134.877 79 134.741 79 132.175C79 128.639 77.346 127 73.775 127C71.616 127 70.705 126.354 69.909 124.26C68.489 120.525 69.618 115.381 72.267 113.526C74.302 112.1 74.515 112.15 75.337 114.247C76.171 116.375 76.321 116.278 78.036 112.5C79.035 110.3 79.885 107.9 79.926 107.167C79.967 106.433 80.563 106.018 81.25 106.244C83.097 106.85 83.335 111.477 81.593 112.923C80.556 113.784 80.269 115.162 80.675 117.337C81.471 121.608 82.858 122.972 84.124 120.729C85.307 118.632 87 119.352 87 121.952C87 122.961 87.712 124.059 88.582 124.393C90.817 125.251 91 125.183 91 123.5C91 121.357 92.741 121.647 94 124C94.599 125.12 96.094 126 97.397 126C99.307 126 99.641 125.575 99.268 123.621C98.867 121.522 99.118 121.3 101.407 121.737C104.215 122.274 104.732 121.221 102.75 118.998C101.709 117.831 101.758 117.789 103.041 118.747C104.273 119.667 104.845 119.477 105.891 117.802C106.928 116.143 107.376 115.99 108.043 117.07C108.995 118.61 107.276 121.289 105.887 120.43C103.677 119.064 105.402 121.724 109.75 126.385L114.5 131.477L110.5 132.199C83.348 137.1 76.223 138.21 71.194 138.326L65.302 138.461L68.239 143.234C70.142 146.327 72.112 148.241 73.838 148.674C75.451 149.079 83.789 147.893 95 145.664C105.175 143.641 114.437 141.989 115.583 141.993C118.439 142.003 119.22 143.028 117.741 144.822C116.659 146.134 116.789 146.174 118.75 145.129C121.654 143.581 121.606 140.873 118.611 137.315L116.223 134.476L119.361 134.624C121.088 134.705 124.188 135.767 126.25 136.985C129.213 138.733 130 139.806 130 142.099C130 143.694 130.45 145 131 145C131.55 145 132 143.827 132 142.393C132 140.419 132.387 139.934 133.593 140.397C134.469 140.733 136.224 141.269 137.492 141.587C140.341 142.302 141.677 147 139.032 147C137.922 147 137.368 147.773 137.421 149.25C137.469 150.619 136.912 151.5 136 151.5C135.088 151.5 134.531 150.619 134.579 149.25C134.623 148.012 134.173 146.994 133.579 146.986C132.986 146.979 131.489 146.702 130.254 146.371C128.018 145.772 128.014 145.79 129.495 150.134C130.814 154.004 130.813 154.28 129.491 152.559C128.671 151.491 128 149.812 128 148.828C128 146.293 123.308 145.309 120.069 147.165C118.656 147.974 117.563 149.394 117.639 150.318C117.82 152.512 116.375 152.474 115.08 150.25C114.519 149.287 114.054 148.95 114.046 149.5C113.994 152.911 119.324 155.222 126.478 154.892C129.24 154.764 132.512 155.202 133.75 155.865C135.413 156.756 136.536 156.784 138.053 155.971C139.183 155.367 143.203 154.773 146.987 154.651C152.081 154.487 154.405 153.944 155.934 152.56C157.07 151.531 158 150.24 158 149.69C158 149.14 157.145 149.464 156.1 150.409C154.303 152.036 154.209 152.034 154.35 150.383C154.712 146.158 144.765 144.636 143.689 148.751C143.345 150.066 143.203 149.942 143.116 148.25C143.052 147.012 142.55 146 142 146C140.423 146 140.835 143.001 142.5 142.362C143.325 142.045 144 140.99 144 140.018C144 138.882 145 138.05 146.798 137.69C148.337 137.383 150.7 136.067 152.048 134.767C153.397 133.466 156.882 130.684 159.794 128.584C162.705 126.484 166.582 122.808 168.409 120.415C170.236 118.022 171.995 116.329 172.318 116.651C172.641 116.974 172.191 117.952 171.318 118.824C168.526 121.617 171.905 121.465 174.83 118.666C176.486 117.082 179.778 115.603 183.5 114.772C188.885 113.57 189.466 113.197 189.173 111.13C188.789 108.431 191.593 104.907 193.533 105.651C194.273 105.935 195.464 105.23 196.18 104.084C196.896 102.938 198.096 102 198.848 102C199.599 102 199.978 101.384 199.688 100.631C199.399 99.877 199.992 97.898 201.005 96.232C202.019 94.565 202.994 91.954 203.174 90.428C203.485 87.779 206 85.597 206 87.976C206 88.604 205.55 88.84 205 88.5C204.45 88.16 204 88.621 204 89.524C204 90.428 204.563 90.981 205.25 90.755C206.895 90.213 207.465 86.065 206.085 84.685C205.488 84.088 205 82.816 205 81.857C205 79.565 200.93 76.67 199.591 78.009C197.819 79.781 196.269 79.063 194.94 75.855C193.725 72.921 193.813 72.557 196.251 70.46C197.689 69.223 199.458 68.005 200.183 67.752C201.187 67.401 201.06 66.797 199.647 65.204C198.628 64.055 198.012 62.527 198.278 61.808C198.57 61.018 199.195 61.589 199.856 63.25C201.513 67.414 203.276 66.689 202.831 62.026C202.585 59.448 202.794 58.394 203.426 59.026C206.214 61.814 207.072 56.976 204.453 53.236C203.056 51.242 203.056 51.084 204.453 51.62C206.717 52.489 206.392 49.665 203.976 47.479C202.646 46.275 202.329 45.414 203.052 44.968C203.757 44.532 203.091 43.128 201.193 41.05C199.168 38.834 198.003 38.187 197.5 39.001C197.003 39.804 196.155 39.266 194.889 37.345C193.435 35.139 193.012 34.912 193.007 36.333C193 38.137 190.525 38.218 190.474 36.417C190.421 34.535 186.714 30 185.23 30C183.885 30 183.9 30.232 185.345 31.829ZM109 32C109 32.55 109.45 33 110 33C110.55 33 111 32.55 111 32C111 31.45 110.55 31 110 31C109.45 31 109 31.45 109 32ZM164 32C164 32.55 164.45 33 165 33C165.55 33 166 32.55 166 32C166 31.45 165.55 31 165 31C164.45 31 164 31.45 164 32ZM78 34.976C78 36.028 79.09 38.151 80.422 39.694L82.845 42.5L81.724 38.281C80.55 33.859 78 31.596 78 34.976ZM107.192 35.075C107.389 35.666 107.977 36.15 108.5 36.15C109.023 36.15 109.611 35.666 109.808 35.075C110.005 34.484 109.417 34 108.5 34C107.583 34 106.995 34.484 107.192 35.075ZM165.5 35C165.16 35.55 165.584 36 166.441 36C167.298 36 168 35.55 168 35C168 34.45 167.577 34 167.059 34C166.541 34 165.84 34.45 165.5 35ZM83 37.891C83 38.38 84.553 38.962 86.451 39.184C89.187 39.504 89.68 39.319 88.829 38.293C87.62 36.837 83 36.518 83 37.891ZM76.076 40.409C74.55 42.247 73.867 46 75.057 46C75.576 46 76 45.473 76 44.829C76 44.185 76.704 42.879 77.565 41.928C78.461 40.939 78.723 39.947 78.178 39.61C77.655 39.287 76.709 39.646 76.076 40.409ZM268.713 39.621C268.321 40.013 268 57.583 268 78.667V117H294H320V112.5V108H299.513H279.026L278.763 73.75L278.5 39.5L273.963 39.204C271.467 39.041 269.105 39.229 268.713 39.621ZM498.714 39.62C498.321 40.012 498 57.583 498 78.667V117H503.012H508.023L507.762 78.25L507.5 39.5L503.464 39.203C501.244 39.04 499.106 39.227 498.714 39.62ZM572.656 39.748C572.37 40.211 567.322 52.944 561.438 68.045C545.624 108.627 543.032 115.417 543.015 116.302C543.007 116.744 545.306 116.969 548.124 116.802L553.247 116.5L557.482 105.5L561.716 94.5L578.277 94.226L594.838 93.952L596.758 99.226C597.813 102.127 599.705 107.313 600.96 110.75L603.244 117H609.047H614.849L611.048 107.25C600.97 81.399 590.479 54.717 587.556 47.5L584.316 39.5L578.746 39.203C575.683 39.039 572.942 39.284 572.656 39.748ZM620 45V51H624.5H629V45V39H624.5H620V45ZM682 53.174V67.349L679.75 65.299C673.946 60.013 665.57 58.239 656.803 60.439C651.564 61.754 649.71 62.838 645.821 66.862C639.78 73.112 637.574 80.081 638.202 90.935C639.194 108.072 648.658 118 664 118C671.026 118 675.969 116.216 679.501 112.405L682 109.708V113.354V117H686.5H691V78V39H686.5H682V53.174ZM756.255 40.25C755.711 40.938 754.353 43.975 753.238 47C751.371 52.065 747.1 62.967 732.278 100.5C729.238 108.2 726.533 115.063 726.268 115.75C725.919 116.656 727.286 117 731.24 117H736.695L741 105.5L745.305 94H761.928H778.55L781.385 102.25C786.739 117.83 786.116 117 792.449 117C795.502 117 798 116.796 798 116.547C798 116.298 797.584 115.06 797.077 113.797C796.569 112.534 794.572 107.45 792.64 102.5C790.708 97.55 786.224 86.075 782.675 77C779.126 67.925 774.338 55.663 772.035 49.75L767.848 39H762.547C759.5 39 756.824 39.532 756.255 40.25ZM198 43C198.589 44.1 198.845 45 198.57 45C198.295 45 197.589 44.1 197 43C196.411 41.9 196.155 41 196.43 41C196.705 41 197.411 41.9 198 43ZM188.5 44C188.84 44.55 188.416 45 187.559 45C186.702 45 186 44.55 186 44C186 43.45 186.423 43 186.941 43C187.459 43 188.16 43.45 188.5 44ZM201.338 50.569C201.529 52.207 201.337 54.437 200.913 55.524C200.348 56.968 200.122 56.378 200.07 53.332C200.032 51.039 199.709 48.339 199.353 47.332C198.88 45.994 199.014 45.782 199.849 46.546C200.477 47.121 201.148 48.932 201.338 50.569ZM91.457 50.069C91.141 50.581 90.178 51 89.319 51C88.047 51 87.986 50.722 88.991 49.511C90.282 47.955 92.459 48.448 91.457 50.069ZM140.441 49.532C142.363 50.985 142.363 51.015 140.441 52.468C137.946 54.355 136.547 54.364 135 52.5C134.007 51.303 134.007 50.697 135 49.5C136.547 47.636 137.946 47.645 140.441 49.532ZM181 49.607C181 49.823 180.073 50 178.941 50C177.809 50 177.148 49.57 177.473 49.044C178.007 48.18 181 48.658 181 49.607ZM128.808 51.742C129.184 54.281 125.618 55.758 123.452 53.96C121.404 52.261 121.645 51.078 124.25 50.035C127.281 48.821 128.441 49.256 128.808 51.742ZM152.73 51.74C153.46 53.641 151.051 55.123 148.5 54.342C145.649 53.47 144.784 51.689 146.565 50.356C148.434 48.956 151.967 49.749 152.73 51.74ZM583.034 61.399C584.557 65.855 586.972 72.591 588.401 76.369C589.831 80.147 591 83.635 591 84.119C591 84.604 585.375 85 578.5 85C569.163 85 566.002 84.684 566.006 83.75C566.01 83.063 568.498 75.75 571.536 67.5C574.574 59.25 577.301 51.825 577.597 51C578.344 48.916 579.57 51.26 583.034 61.399ZM768.284 66.25C771.449 75.188 774.03 83.063 774.019 83.75C774.005 84.682 770.823 85 761.5 85C754.625 85 749 84.857 749 84.682C749 84.508 750.623 79.895 752.606 74.432C754.589 68.97 757.355 61.237 758.754 57.25C760.152 53.263 761.573 50 761.913 50C762.253 50 765.12 57.313 768.284 66.25ZM84.019 52.988C83.236 53.472 82.154 53.595 81.614 53.262C81.074 52.928 81.503 52.339 82.566 51.953C84.957 51.085 85.952 51.794 84.019 52.988ZM187.5 52.464C190.108 53.658 190.214 53.848 188.309 53.919C187.104 53.963 185.827 54.472 185.47 55.048C185.114 55.624 184.075 55.973 183.161 55.823C182.248 55.673 180.938 55.903 180.25 56.334C179.543 56.777 179 56.658 179 56.059C179 55.477 179.398 55 179.883 55C180.369 55 181.002 54.1 181.29 53C181.897 50.679 183.331 50.555 187.5 52.464ZM118 54.548C118 56.427 116.027 57.427 114.78 56.18C113.287 54.687 114.6 51.909 116.462 52.624C117.308 52.948 118 53.814 118 54.548ZM161.427 53.67C161.997 55.156 160.612 56.943 158.857 56.985C157.514 57.017 156.989 53.624 158.216 52.845C160.099 51.651 160.713 51.809 161.427 53.67ZM95 55C95 55.55 94.802 56 94.559 56C94.316 56 93.84 55.55 93.5 55C93.16 54.45 93.359 54 93.941 54C94.523 54 95 54.45 95 55ZM223.105 55.373C222.378 56.249 220.183 57.408 218.226 57.948C215.281 58.761 214.445 58.635 213.366 57.215C212.177 55.649 212.061 55.644 212.032 57.155C212.014 58.066 210.425 60.696 208.5 63C206.575 65.304 205 68.018 205 69.031C205 70.045 207.022 73.827 209.493 77.437C211.965 81.047 213.794 84 213.558 84C213.323 84 211.976 83.561 210.565 83.025C209.154 82.488 208.007 82.376 208.015 82.775C208.05 84.435 209.688 85.883 212.26 86.529C215.439 87.327 215.62 87.826 213.338 89.495C212.228 90.306 211.919 91.341 212.409 92.605C213.118 94.436 213.188 94.438 214.49 92.67C216.437 90.026 220.242 90.878 221.412 94.22C222.166 96.372 221.981 97.363 220.527 98.97C219.517 100.086 218.145 101 217.48 101C215.643 101 210.992 97.035 209.014 93.783C207.408 91.142 207.116 91.027 205.67 92.473C204.798 93.345 204.351 94.752 204.677 95.601C205.003 96.45 204.309 98.444 203.135 100.032C201.961 101.62 201 103.205 201 103.555C201 105.103 196.751 109.964 195.872 109.421C194.235 108.409 190 113.87 190 116.993C190 118.582 189.519 120.179 188.931 120.543C188.343 120.906 187.985 122.913 188.136 125.002C188.287 127.091 187.818 129.515 187.093 130.387C186.294 131.35 186.032 132.993 186.427 134.567C186.972 136.735 186.785 137.073 185.289 136.63C180.569 135.232 166.262 133 162.026 133C158.214 133 156.746 133.526 154.616 135.657C153.155 137.118 151.693 139.374 151.368 140.67C150.775 143.034 152.375 146 154.245 146C154.806 146 154.703 145.347 154.01 144.512C151.515 141.505 156.277 141.7 174.466 145.346C198.36 150.137 199.266 150.123 202.548 144.924C206.544 138.594 206.534 138.353 202.281 138.726C198.547 139.053 198.528 139.036 200.75 137.407C201.988 136.499 203.007 134.798 203.015 133.628C203.024 132.458 203.451 130.836 203.964 130.024C204.726 128.819 205.063 128.996 205.799 130.987C206.678 133.362 206.73 133.373 207.782 131.408C208.376 130.298 208.627 127.614 208.341 125.445C208.044 123.195 208.446 119.694 209.276 117.299C210.678 113.256 210.643 113.014 208.366 110.874C205.921 108.577 205.212 103.793 206.918 101.098C207.648 99.945 208.614 100.17 212.357 102.363C214.86 103.83 217.604 106.024 218.454 107.238L220 109.445V106.633C220 104.924 220.883 103.105 222.25 101.995C224.225 100.393 224.5 99.244 224.5 92.588C224.5 85.635 223.802 83.113 222.746 86.25C222.178 87.937 219.99 86.083 213.836 78.698C208.698 72.534 207.639 68.375 210.584 65.93C212.593 64.263 215.233 65.749 215.995 68.977C216.474 71.007 216.682 71.088 217.837 69.697C218.777 68.563 218.854 67.596 218.113 66.211C217.223 64.548 217.387 64.351 219.354 64.727C220.657 64.976 222.18 64.488 222.933 63.58C224.076 62.204 223.875 61.992 221.372 61.937C218.714 61.878 218.663 61.808 220.685 60.993C223.032 60.047 225.352 56.557 224.778 54.835C224.575 54.225 223.87 54.452 223.105 55.373ZM90 56C90 56.55 89.073 57 87.941 57C86.809 57 86.16 56.55 86.5 56C86.84 55.45 87.766 55 88.559 55C89.352 55 90 55.45 90 56ZM176.5 59.25C176.595 60.542 177.437 61.65 178.478 61.851C179.858 62.119 180.129 61.779 179.612 60.431C178.697 58.047 180.945 56.802 182.806 58.663C183.735 59.592 185.197 59.916 186.728 59.532C188.19 59.165 188.928 59.308 188.569 59.888C188.021 60.775 191.629 62.618 193.155 62.23C193.515 62.138 194.064 62.724 194.374 63.532C194.72 64.434 194.339 65 193.385 65C191.297 65 192.2 67.41 194.451 67.846C195.49 68.047 195.969 67.759 195.597 67.157C195.228 66.559 195.812 66.185 196.978 66.273C199.862 66.491 199.478 67.559 196 69C194.35 69.683 193 70.708 193 71.276C193 71.845 192.209 71.594 191.243 70.719C190.276 69.845 186.21 68.066 182.208 66.766C178.205 65.467 175.183 64.15 175.493 63.84C175.803 63.531 175.59 62.052 175.021 60.555C174.452 59.057 174.259 57.39 174.593 56.85C175.437 55.484 176.303 56.575 176.5 59.25ZM92.37 59.71C91.776 59.908 91.503 61.179 91.762 62.535C92.411 65.932 89.432 65.857 88.578 62.454C87.74 59.116 88.501 58.057 91.225 58.769C92.448 59.089 92.963 59.512 92.37 59.71ZM83.493 59.989C83.843 60.555 83.442 60.723 82.552 60.382C80.82 59.717 80.503 59 81.941 59C82.459 59 83.157 59.445 83.493 59.989ZM135.187 62.25C135.462 65.108 135.892 65.538 138.75 65.813C141.867 66.114 142 65.981 142 62.563C142 58.425 140.284 57.725 139.816 61.673C139.356 65.566 137 65.909 137 62.083C137 60.388 136.521 59 135.937 59C135.339 59 135.011 60.424 135.187 62.25ZM342.5 59.883C329.474 63.24 321.507 74.162 321.625 88.5C321.777 106.884 331.897 117.967 348.554 117.99C360.529 118.007 369.703 111.736 371.603 102.234L372.25 99L367.875 99.022C363.954 99.041 363.344 99.372 362 102.211C359.875 106.698 355.94 109.203 350.14 109.761C340.42 110.695 332.511 104.262 331.763 94.814L331.5 91.5L352.358 91.308C363.83 91.203 373.382 90.952 373.584 90.75C374.356 89.978 371.795 77.327 370.094 73.506C367.935 68.659 362.688 63.343 358.192 61.448C353.934 59.653 346.333 58.895 342.5 59.883ZM398.917 59.93C389.895 61.694 382.606 68.724 379.826 78.343C378.278 83.695 378.285 94.327 379.839 99.708C384.809 116.918 407.211 123.586 418.637 111.257L421 108.708V113.886C421 120.21 419.242 124.564 415.124 128.436C409.021 134.175 395.059 132.78 391.227 126.048C389.73 123.417 388.934 123.012 385.25 123.006C381.453 123.001 381 123.251 381 125.352C381 132.125 390.124 138.62 401.077 139.643C413.066 140.762 422.605 136.39 427.294 127.624C429.411 123.665 429.513 122.246 429.814 92.25L430.129 61H425.564C421.1 61 421 61.07 421 64.187V67.374L418.136 64.63C415.391 62 407.429 58.874 404.091 59.115C403.216 59.178 400.887 59.545 398.917 59.93ZM457.326 60C449.62 61.606 444.231 65.601 442.067 71.315C439.967 76.858 440.54 78 445.422 78C449.613 78 449.907 77.811 451.032 74.403C452.62 69.592 457.189 67.652 465.657 68.191C473.411 68.685 476 70.672 476 76.132C476 81.116 473.68 82.632 463.967 83.99C447.628 86.275 441.195 89.849 439.045 97.835C437.591 103.232 438.582 108.35 441.828 112.207C445.248 116.272 449.692 118 456.724 118C464.241 118 468.532 116.711 473.02 113.104L476.662 110.177L477.895 113.585C479.238 117.301 481.533 118.357 487.1 117.824C490.139 117.532 490.537 117.13 491.073 113.8C491.623 110.384 491.471 110.078 489.084 109.8L486.5 109.5L486 89.32C485.442 66.791 484.991 65.262 477.903 61.855C473.653 59.813 462.883 58.842 457.326 60ZM817.718 60.054C806.152 62.892 799.223 72.158 798.223 86.123C797.294 99.117 802.108 110.003 810.702 114.338C820.572 119.316 829.624 118.582 837.082 112.198L841.28 108.604L840.826 114.086C839.867 125.644 833.988 132 824.253 132C817.608 132 812.41 129.693 810.43 125.865C809.134 123.359 808.388 123 804.474 123C799.334 123 799.128 123.568 802.07 129.645C803.726 133.066 805.277 134.48 809.82 136.711C814.687 139.101 816.72 139.5 824.027 139.5C831.207 139.5 833.337 139.097 837.514 136.947C843.84 133.692 847.541 128.334 848.932 120.418C849.519 117.073 850 102.336 850 87.668V61H845.5C841.112 61 841 61.079 841 64.174V67.349L838.75 65.291C833.464 60.458 824.833 58.309 817.718 60.054ZM878.718 60.054C872.865 61.49 869.573 63.542 865.259 68.444C856.945 77.888 855.708 92.231 862.123 104.804C866.706 113.786 872.213 117.32 882.431 117.836C891.333 118.286 896.412 116.948 901.379 112.845C904.933 109.91 908.925 103.294 908.978 100.25C908.992 99.435 907.462 99 904.582 99C900.47 99 900.038 99.259 898.332 102.75C895.734 108.068 891.077 110.254 883.639 109.647C876.073 109.03 871.175 105.355 869.126 98.755C866.661 90.818 866.181 91 889.611 91H910.285L909.666 85.083C908.917 77.912 905.284 69.461 901.379 65.803C895.967 60.733 886.126 58.237 878.718 60.054ZM939.358 59.906C935.334 60.927 929.365 64.607 928.631 66.52C927.583 69.25 926 68.035 926 64.5C926 61.083 925.905 61 922 61H918V89V117H922.424H926.847L927.174 97.75C927.464 80.65 927.723 78.122 929.5 75.113C933.064 69.077 942.236 66.238 949.387 68.957C954.349 70.844 955 74.03 955 96.45V117H959.5H964V94.712C964 73.587 963.883 72.191 961.75 67.962C960.212 64.911 958.353 62.963 955.875 61.801C951.455 59.729 943.607 58.829 939.358 59.906ZM994.5 59.634C984.411 62.138 978.164 67.272 975.037 75.631C972.038 83.647 972.196 96.751 975.374 103.5C979.96 113.241 985.634 117.074 996.5 117.772C1005.38 118.342 1010.55 116.935 1015.66 112.558C1019.85 108.972 1024.58 99.949 1023.6 97.403C1023.27 96.529 1021.58 96 1019.14 96C1015.46 96 1015.06 96.299 1012.86 100.698C1009.5 107.39 1006.18 109.5 999 109.5C988.426 109.5 982.983 102.529 983.022 89.038C983.047 80.578 984.997 75.103 989.448 71C991.828 68.807 993.061 68.5 999.497 68.5C1005.82 68.5 1007.18 68.825 1009.34 70.849C1010.71 72.141 1012.39 74.525 1013.06 76.148C1014.2 78.887 1014.61 79.077 1018.89 78.799C1023.17 78.521 1023.47 78.322 1023.15 76C1022.26 69.747 1016.41 63.028 1010.28 61.218C1005.55 59.822 997.141 58.978 994.5 59.634ZM181.496 61.007C180.711 62.276 183.511 63.42 185.059 62.464C185.901 61.943 185.847 61.518 184.857 60.89C183.069 59.758 182.25 59.786 181.496 61.007ZM130.823 63.333C131.041 64.457 130.471 65 129.073 65C127.933 65 127 64.4 127 63.667C127 60.604 130.239 60.321 130.823 63.333ZM620 89V117H624.5H629V89V61H624.5H620V89ZM1025 61.302C1025 61.469 1029.96 73.928 1036.03 88.991L1047.06 116.377L1045.3 121.298C1044.32 124.005 1042.48 127.35 1041.2 128.732C1039.19 130.896 1038.24 131.175 1034.38 130.74L1029.9 130.234L1030.2 134.367L1030.5 138.5L1036.56 138.793C1046.45 139.27 1048.25 137.026 1057.74 112.5C1072.25 74.976 1077.01 62.424 1077.01 61.695C1077 61.253 1074.86 61.028 1072.25 61.195L1067.5 61.5L1060 83.17C1055.88 95.089 1052.27 105.072 1051.98 105.355C1051.7 105.638 1047.89 95.774 1043.53 83.435L1035.6 61H1030.3C1027.39 61 1025 61.136 1025 61.302ZM96.992 64.872C96.988 65.218 95.808 66.046 94.37 66.713C91.841 67.887 91.812 67.865 93.476 66.026C94.506 64.889 94.879 63.599 94.406 62.813C93.798 61.802 94.006 61.816 95.308 62.872C96.239 63.627 96.996 64.527 96.992 64.872ZM187.276 63.33C187.49 63.974 188.468 64.655 189.448 64.846C190.535 65.056 191.067 64.7 190.811 63.933C190.58 63.241 189.603 62.559 188.639 62.418C187.666 62.275 187.06 62.681 187.276 63.33ZM89.974 67.175C91.012 67.509 90.79 67.822 89.224 68.231C87.431 68.7 87.003 68.395 87.015 66.656C87.024 65.403 87.338 64.961 87.765 65.6C88.169 66.205 89.163 66.914 89.974 67.175ZM158.742 69.776C158.635 71.202 157.906 71.475 155.054 71.158C153.099 70.941 150.978 70.344 150.339 69.833C149.611 69.25 148.937 69.294 148.53 69.951C147.752 71.209 141.341 71.361 140.586 70.139C139.534 68.436 141.474 68 150.105 68C157.891 68 158.861 68.199 158.742 69.776ZM169 69.559C169 70.416 169.45 70.84 170 70.5C170.55 70.16 171 69.459 171 68.941C171 68.423 170.55 68 170 68C169.45 68 169 68.702 169 69.559ZM354.98 69.752C359.213 71.878 363 77.272 363 81.173V84.051L347.25 83.775L331.5 83.5L331.833 81C332.346 77.145 335.266 72.737 338.952 70.253C343.07 67.478 350.022 67.26 354.98 69.752ZM415.572 72.23C424.257 81.707 422.206 101.312 411.891 107.405C408.163 109.607 400.248 109.449 396.387 107.094C388.724 102.421 385.952 86.442 391.065 76.419C394.387 69.909 398.435 67.757 406.395 68.269C411.656 68.608 412.643 69.034 415.572 72.23ZM674.669 70.764C681.596 75.697 684.199 90.017 679.96 99.871C674.571 112.399 657.66 113.494 650.934 101.75C648.88 98.163 648.5 96.175 648.5 89C648.5 78.963 650.54 73.843 656 70.176C658.933 68.206 660.479 67.885 665.543 68.197C669.713 68.453 672.54 69.249 674.669 70.764ZM832.016 69.868C843.191 75.859 843.181 99.362 832 106.837C826.952 110.212 818.264 109.586 814.044 105.542C808.733 100.454 806.499 88.944 809.044 79.781C810.223 75.537 814.348 70.211 817.418 68.969C821.112 67.475 828.387 67.923 832.016 69.868ZM893.281 70.549C896.441 72.841 900.447 80.393 899.631 82.52C899.163 83.739 896.304 84 883.406 84H867.75L868.377 80.865C869.317 76.165 872.614 71.447 876.256 69.588C880.578 67.383 889.619 67.893 893.281 70.549ZM101 69.441C101 69.684 100.55 70.16 100 70.5C99.45 70.84 99 70.641 99 70.059C99 69.477 99.45 69 100 69C100.55 69 101 69.198 101 69.441ZM116.553 70.722C115.996 72.173 115.752 72.217 115.001 71.001C114.51 70.207 113.849 69.818 113.531 70.136C112.558 71.108 114.071 73.86 115.835 74.327C116.985 74.632 116.805 74.804 115.25 74.884C112.481 75.027 112.229 77 114.98 77C116.069 77 118.753 76.282 120.945 75.405C123.138 74.528 125.509 74.043 126.216 74.326C127.024 74.651 126.851 74.871 125.75 74.921C124.787 74.964 124 75.502 124 76.117C124 76.834 124.804 76.96 126.25 76.47C127.488 76.05 129.963 75.694 131.75 75.678C134.991 75.65 135.94 74.699 133.951 73.47C133.235 73.027 133.273 72.376 134.074 71.411C134.718 70.635 134.852 69.923 134.372 69.829C131.602 69.287 121.009 69.621 121.005 70.25C121.002 70.662 121.563 71.007 122.25 71.015C123.084 71.026 123.003 71.345 122.007 71.975C120.908 72.669 120.323 72.401 119.789 70.959C118.894 68.54 117.432 68.433 116.553 70.722ZM138.839 82.32L138.5 92.5H149.5H160.5L160.241 82.176C160.099 76.498 160.423 71.098 160.961 70.176C161.933 68.51 162.166 71.45 162.413 88.5L162.5 94.5H150H137.5L137.262 81.5C137.086 71.846 137.302 68.969 138.101 70.32C138.747 71.412 139.042 76.214 138.839 82.32ZM132.5 71C132.16 71.55 130.221 71.941 128.191 71.868L124.5 71.737L128 71C133.154 69.915 133.17 69.915 132.5 71ZM149.5 72.5H157.5V81.5V90.5L149.75 90.674C144.394 90.794 141.995 90.485 141.985 89.674C141.976 88.992 141.563 89.129 141 90C140.34 91.021 140.031 88.144 140.031 81C140.031 75.225 140.361 70.95 140.765 71.5C141.169 72.05 145.1 72.5 149.5 72.5ZM110 75.122C110 77.785 109.779 78.061 108.5 77C106.098 75.006 106.588 73.078 109.75 72.079C109.888 72.036 110 73.405 110 75.122ZM144 74.941C144 75.459 144.45 76.16 145 76.5C146.157 77.215 146.369 79.123 145.25 78.75C144.838 78.612 144.5 78.95 144.5 79.5C144.5 80.05 145.746 80.495 147.269 80.489C149.574 80.48 150.196 81.051 150.982 83.895C151.5 85.775 151.69 87.692 151.403 88.156C151.117 88.62 151.62 89 152.523 89C153.811 89 154.065 88.271 153.706 85.605C153.454 83.738 152.871 81.601 152.411 80.856C151.95 80.111 151.704 78.263 151.862 76.751C152.221 73.333 149.359 72.881 148.697 76.25L148.254 78.5L147.51 76.25C146.791 74.073 144 73.033 144 74.941ZM154.2 76.2C152.712 77.688 152.639 80.659 154.068 81.542C154.656 81.905 154.854 82.944 154.509 83.851C154.013 85.154 154.14 85.243 155.114 84.277C156.08 83.318 156.086 82.485 155.141 80.411C154.114 78.157 154.2 77.567 155.718 76.415C156.698 75.672 157.028 75.049 156.45 75.032C155.873 75.014 154.86 75.54 154.2 76.2ZM176.442 78.094C176.07 78.696 174.731 78.991 173.466 78.749C171.412 78.356 171.263 78.561 172.066 80.673C172.758 82.494 172.518 83.482 171.018 84.982C169.344 86.656 168.874 86.731 167.664 85.521C166.149 84.006 166.539 79.403 168.274 78.331C168.873 77.961 169.008 78.178 168.595 78.845C168.203 79.48 168.359 80 168.941 80C169.523 80 170 79.325 170 78.5C170 77.448 171.062 77 173.559 77C175.881 77 176.883 77.38 176.442 78.094ZM90.768 81C91.455 82.1 91.858 83 91.663 83C91.469 83 90.495 82.1 89.5 81C88.505 79.9 88.102 79 88.604 79C89.107 79 90.081 79.9 90.768 81ZM141.079 81.583C141.127 82.748 141.364 82.985 141.683 82.188C141.972 81.466 141.936 80.603 141.604 80.271C141.272 79.939 141.036 80.529 141.079 81.583ZM185.158 87.419C188.096 88.979 191.886 91.715 193.581 93.499C196.341 96.405 196.515 96.938 195.253 98.621C193.883 100.449 193.854 100.448 194.172 98.552C194.44 96.958 193.863 96.566 191 96.4C185.685 96.091 181.183 98.35 180.466 101.684C180.134 103.233 179.452 105.513 178.952 106.75C177.865 109.44 179.428 109.845 180.88 107.25C181.747 105.702 181.983 105.824 182.93 108.315C184.354 112.061 184.503 111.829 180.25 112.509C178.188 112.839 175.719 113.535 174.764 114.055C172.079 115.516 172.058 115.346 174.227 109.75C176.556 103.742 177.04 89.503 175.083 84.583C173.543 80.712 175.588 79.206 178.081 82.376C179.035 83.589 182.22 85.859 185.158 87.419ZM203 80.969C203 81.501 202.325 81.678 201.5 81.362C200.675 81.045 200 80.609 200 80.393C200 80.177 200.675 80 201.5 80C202.325 80 203 80.436 203 80.969ZM203.817 84.535C203.991 84.681 203.713 85.059 203.2 85.376C202.687 85.693 201.42 84.998 200.384 83.831C198.505 81.715 198.507 81.712 201 82.99C202.375 83.694 203.642 84.39 203.817 84.535ZM148 84.107C148 84.716 147.339 84.96 146.532 84.651C145.725 84.341 144.827 84.471 144.538 84.939C144.248 85.407 144.721 86.063 145.588 86.395C148.474 87.503 150 87.021 150 85C150 83.9 149.55 83 149 83C148.45 83 148 83.498 148 84.107ZM95.98 86.75C96.037 87.713 96.077 89.85 96.068 91.5C96.039 97.348 98.106 108.45 100.036 112.814C101.209 115.465 101.473 116.807 100.695 116.162C99.98 115.569 98.459 115.329 97.315 115.628C95.398 116.129 89 113.652 89 112.409C89 112.112 89.517 110.902 90.149 109.721L91.298 107.574L92.117 109.787C93.772 114.26 94.626 111.82 93.529 105.755C92.228 98.56 90.163 96.806 83.5 97.24C80.117 97.46 79.553 97.808 79.845 99.5C80.244 101.815 79.768 101.454 78.036 98.129C77.352 96.818 77.261 96.043 77.831 96.396C79.418 97.376 80.443 94.9 78.878 93.868C77.771 93.138 77.967 92.568 79.876 90.967C81.183 89.871 83.433 88.724 84.876 88.418C86.319 88.112 88.496 87.46 89.714 86.969C91.157 86.387 92.164 86.456 92.603 87.166C93.045 87.882 93.59 87.698 94.188 86.628C95.359 84.536 95.85 84.569 95.98 86.75ZM174 87.2C174 88.815 173.704 89.104 172.887 88.287C172.275 87.675 172.077 86.685 172.446 86.087C173.481 84.413 174 84.785 174 87.2ZM121 87C121 87.55 121.477 88 122.059 88C122.641 88 122.84 87.55 122.5 87C122.16 86.45 121.684 86 121.441 86C121.198 86 121 86.45 121 87ZM101 89.559C101 90.352 101.188 91 101.418 91C101.648 91 102.548 91.273 103.418 91.607C104.496 92.02 105 91.646 105 90.433C105 87.099 109.984 92.937 110.116 96.424C110.18 98.116 110.438 98.713 110.689 97.75C110.983 96.627 112.106 96.005 113.823 96.015C115.737 96.026 116.107 96.279 115.122 96.904C113.406 97.991 114.691 100.333 116.601 99.6C117.375 99.303 118 99.667 118 100.415C118 101.158 117.026 102.021 115.836 102.333C113.962 102.823 113.853 103.118 115.021 104.526C116.159 105.897 116.146 106.301 114.936 107.095C113.724 107.891 113.787 108.257 115.341 109.446C116.588 110.4 116.969 111.521 116.523 112.927C115.975 114.654 116.252 114.958 118.179 114.75C119.902 114.564 120.575 115.066 120.812 116.715C121.129 118.927 120.375 119.346 114.5 120.22C113.14 120.422 112.396 121.423 112.175 123.346C111.862 126.071 111.78 126.111 109.925 124.432C107.333 122.087 107.469 121.532 111.22 119.158C113.598 117.652 114.78 117.402 115.744 118.202C117.766 119.88 118.524 118.236 116.672 116.19C115.765 115.187 114.336 112.597 113.496 110.434C112.517 107.911 112.161 107.486 112.504 109.25C113.284 113.267 112.18 112.613 109.973 107.75C108.818 105.204 108.035 101.253 108.022 97.897L108 92.294L102.838 92.79C98.255 93.23 97.751 93.092 98.338 91.561C98.702 90.612 99 89.172 99 88.359C99 87.547 99.45 87.16 100 87.5C100.55 87.84 101 88.766 101 89.559ZM133 88C133 88.55 132.213 88.993 131.25 88.985C129.754 88.972 129.718 88.828 131 88C132.887 86.78 133 86.78 133 88ZM170 89.749C170 88.443 170.407 88.377 172.492 89.344C175.405 90.695 176.154 96 173.433 96C172.341 96 172.051 96.584 172.476 97.925C172.94 99.387 172.536 99.945 170.794 100.249C168.669 100.619 168.64 100.71 170.395 101.487C171.762 102.092 172.667 101.809 173.645 100.471C175.132 98.437 175.309 99.203 174.401 103.744C173.813 106.686 173.735 106.72 169.84 105.731C166.419 104.863 165.901 104.369 166.045 102.113C166.309 97.974 165.831 97.235 165 100.5C164.298 103.26 164.227 103.144 164.118 99.059C164.02 95.355 164.208 94.875 165.25 96.169C167.092 98.455 169.746 99.105 170.389 97.428C171.205 95.301 169.289 91 167.525 91C166.686 91 166 90.255 166 89.345C166 87.857 166.201 87.872 168 89.5C169.706 91.044 170 91.081 170 89.749ZM115.549 91.811C114.764 91.983 113.957 92.883 113.754 93.811C113.543 94.78 113.176 94.194 112.894 92.439C112.43 89.553 112.533 89.439 114.688 90.439C116.206 91.144 116.495 91.605 115.549 91.811ZM476 94.596C476 104.234 471.465 108.839 461.173 109.651C454.57 110.172 451.126 108.746 449.178 104.685C446.226 98.527 451.869 92.62 461.8 91.473C464.935 91.111 468.85 90.447 470.5 89.997C475.884 88.531 476 88.627 476 94.596ZM125.75 91.689C124.787 91.941 124 92.789 124 93.573C124 94.597 122.799 94.979 119.75 94.926L115.5 94.852L119.5 93C121.7 91.982 124.4 91.167 125.5 91.19C127.156 91.225 127.199 91.311 125.75 91.689ZM106 95.5C106 96.325 105.213 97.006 104.25 97.014C103.287 97.021 101.487 97.299 100.25 97.63C98.435 98.117 98 97.824 98 96.117C98 94.314 98.593 94 102 94C104.889 94 106 94.417 106 95.5ZM136 97.535C136 98.75 135.591 98.851 134.041 98.022C132.897 97.41 129.828 97.238 126.67 97.609C123.39 97.994 120.52 97.815 119.38 97.153C117.921 96.305 119.572 96.054 126.75 96.03C134.413 96.005 136 96.263 136 97.535ZM142.251 98.148C141.746 100.077 141.568 100.13 140.496 98.663C139.839 97.766 139.04 97.293 138.72 97.613C137.709 98.625 139.196 101.13 141.389 102.112C143.448 103.033 143.445 103.046 141.251 102.622C138.359 102.064 137.118 103.957 139.899 104.684C141.221 105.03 141.988 106.024 141.968 107.367C141.938 109.388 141.864 109.405 140.564 107.69C139.019 105.652 137.651 106.816 139.009 109.014C139.537 109.869 139.462 110.943 138.82 111.716C137.044 113.856 143.124 113.25 146 111C147.375 109.924 149.175 109.049 150 109.054C151.136 109.061 151.029 109.42 149.559 110.532C147.651 111.975 147.653 112 149.686 112C151.892 112 154.402 109.735 153.356 108.689C153.011 108.344 154.222 108.49 156.048 109.014C160.245 110.217 161.162 109.365 158.229 106.986C156.9 105.909 156.381 104.882 156.979 104.513C157.54 104.166 158 104.385 158 105C158 105.615 158.457 105.835 159.016 105.49C159.575 105.144 159.774 104.443 159.457 103.931C159.141 103.419 159.34 103 159.901 103C160.461 103 160.825 101.651 160.71 100.002C160.499 96.986 159.602 96.122 158.658 98.025C158.379 98.589 158.264 98.476 158.403 97.775C158.543 97.074 159.691 96.349 160.955 96.164C163.169 95.84 163.237 96.041 162.813 101.664C162.375 107.481 159.586 115 157.867 115C157.369 115 157.244 113.875 157.589 112.5C158.321 109.585 156.523 109.137 153.441 111.468C151.9 112.634 151.819 112.943 153.05 112.968C153.903 112.986 155.14 112.46 155.8 111.8C156.664 110.936 157 110.919 157 111.741C157 112.369 156.543 113.165 155.984 113.51C154.35 114.52 149.794 115.143 150.324 114.284C150.59 113.853 149.726 113.435 148.404 113.356C147.082 113.276 146 113.614 146 114.106C146 114.598 146.787 115.007 147.75 115.015C149.246 115.028 149.282 115.172 148 116C145.874 117.374 145 117.229 145 115.5C145 114.667 144.111 114 143 114C141.597 114 140.995 114.672 140.985 116.25C140.973 118.027 140.774 118.191 140.039 117.029C138.614 114.776 137.68 116.534 138.996 118.992C139.745 120.392 140.743 120.951 141.827 120.576C142.934 120.192 142.739 120.643 141.25 121.908C138.704 124.072 138.413 125 140.28 125C140.984 125 143.064 123.405 144.903 121.456C146.741 119.507 148.515 118.181 148.844 118.51C149.173 118.839 148.793 119.51 148 120C147.207 120.49 146.88 121.213 147.273 121.606C148.148 122.481 152.14 119.036 151.483 117.973C150.972 117.146 155.944 115.611 156.697 116.363C156.95 116.617 155.79 117.835 154.118 119.071C152.446 120.307 151.355 121.766 151.694 122.314C152.032 122.861 151.839 123.019 151.264 122.663C150.69 122.308 148.258 123.092 145.86 124.404C143.462 125.717 140.488 127.093 139.25 127.463L137 128.135V112.067V96H139.906C142.387 96 142.731 96.315 142.251 98.148ZM147.546 97.403C148.731 98.588 148.735 98.888 147.573 99.334C146.769 99.642 145.987 99.059 145.692 97.931C145.094 95.642 145.631 95.489 147.546 97.403ZM154.02 97.023C152.089 97.477 149.863 97.445 149.02 96.951C147.996 96.352 149.133 96.084 152.5 96.133C157.317 96.202 157.372 96.235 154.02 97.023ZM201.638 97.5C201.322 98.325 201.499 99 202.031 99C202.564 99 203 98.325 203 97.5C203 96.675 202.823 96 202.607 96C202.391 96 201.955 96.675 201.638 97.5ZM106.985 101.25C106.993 101.662 106.084 102 104.965 102C103.197 102 103.08 101.72 104.072 99.865C104.985 98.159 105.391 98.008 106.092 99.115C106.575 99.877 106.976 100.838 106.985 101.25ZM101 100.5C100.315 101.325 99.36 102 98.878 102C98.395 102 98 101.325 98 100.5C98 99.638 98.902 99 100.122 99C101.896 99 102.04 99.247 101 100.5ZM132.221 101.982C131.829 105.468 130.554 106.379 128.908 104.35C127.745 102.918 127.74 102.761 128.88 103.447C129.834 104.022 130.117 103.85 129.797 102.889C129.397 101.688 125 100.577 125 101.677C125 102.891 129.447 107.842 130.148 107.409C130.604 107.127 130.695 107.632 130.349 108.532C129.847 109.841 129.553 109.901 128.876 108.834C128.072 107.565 127.833 107.919 127.587 110.741C127.471 112.073 126.065 112.497 125.901 111.25C125.847 110.838 125.349 109.652 124.794 108.615C123.983 107.1 123.619 106.999 122.937 108.102C122.32 109.1 122.132 108.897 122.248 107.356C122.409 105.215 123.463 104.909 125.75 106.337C126.438 106.767 127 106.697 127 106.181C127 104.75 124.413 102.92 123.575 103.759C123.167 104.166 122.983 103.983 123.167 103.35C123.35 102.718 123.05 102.267 122.5 102.35C121.95 102.433 121.628 102.885 121.785 103.355C121.942 103.826 121.607 104.769 121.041 105.451C119.58 107.211 124.867 114.143 127.25 113.592C128.213 113.369 129 113.333 129 113.512C129 113.69 129.285 114.579 129.634 115.487C130.22 117.014 129.975 117.019 126.384 115.549C121.396 113.507 119 110.597 119 106.58C119 102.266 120.807 100.194 125 99.699C131.45 98.938 132.526 99.278 132.221 101.982ZM111.232 103C111.232 104.925 111.438 105.713 111.689 104.75C111.941 103.787 111.941 102.213 111.689 101.25C111.438 100.287 111.232 101.075 111.232 103ZM151.25 101.662C150.563 101.94 150 102.579 150 103.083C150 104.519 152.7 104.158 154.357 102.5C156.054 100.803 159 100.486 159 102C159 102.55 158.118 103 157.039 103C155.961 103 154.505 103.615 153.803 104.366C152.849 105.387 151.818 105.484 149.713 104.75C146.311 103.564 144.723 104.592 148.053 105.824L150.397 106.691L147.664 107.213C146.161 107.501 145.167 107.499 145.457 107.21C145.746 106.921 145.496 106.098 144.902 105.381C144.071 104.38 144.593 103.742 147.16 102.621C148.997 101.819 150.95 101.162 151.5 101.161C152.05 101.159 151.938 101.385 151.25 101.662ZM107.985 106.077C107.993 106.394 106.703 106.463 105.118 106.231C103.534 105.998 101.932 106.301 101.559 106.904C100.476 108.658 99 108.171 99 106.06C99 102.822 107.899 102.839 107.985 106.077ZM196.607 105.582C195.668 108.028 195.872 108.351 197.5 107C199.162 105.62 199.49 104 198.107 104C197.616 104 196.941 104.712 196.607 105.582ZM135.592 128.741C135.332 129.002 132.59 127.768 129.5 126C126.41 124.232 123.648 123.018 123.363 123.303C122.539 124.127 136.917 132.169 141.94 133.694C144.448 134.456 147.352 134.861 148.394 134.595C149.476 134.319 149.905 134.484 149.394 134.979C148.902 135.456 147.15 135.993 145.5 136.173C143.237 136.42 142.419 137.074 142.169 138.838C141.726 141.969 139.294 141.38 126.683 135.09C119.338 131.427 117.323 130.736 118.683 132.347L120.5 134.5L118.256 132.6C116.408 131.036 114.029 125.576 114.006 122.846C113.997 121.806 124.15 122.01 126.17 123.091C127.42 123.76 128 123.727 128 122.987C128 122.391 126.643 121.333 124.983 120.635C121.527 119.182 122.044 118 126.135 118C128.208 118 128.788 118.388 128.365 119.492C127.536 121.652 130.839 122.59 132.705 120.724C133.673 119.755 134.488 116.421 134.877 111.837C135.469 104.869 135.514 105.097 135.783 116.384C135.938 122.92 135.853 128.481 135.592 128.741ZM124 106.255C124 106.53 124.635 107.282 125.411 107.926C126.498 108.828 126.994 108.799 127.571 107.799C127.983 107.084 127.952 106.834 127.502 107.241C127.052 107.649 126.08 107.481 125.342 106.869C124.604 106.256 124 105.98 124 106.255ZM106.559 108.096C107.616 109.806 104.282 112.682 102.874 111.274C102.247 110.647 102.005 109.429 102.336 108.567C103.028 106.764 105.561 106.481 106.559 108.096ZM168 108.122C168 108.939 168.377 108.932 169.385 108.096C170.488 107.18 170.895 107.444 171.384 109.394C171.97 111.728 171.336 115 170.297 115C169.912 115 165.472 112.69 163.079 111.246C162.524 110.911 166.284 107.136 167.25 107.059C167.662 107.027 168 107.505 168 108.122ZM109.988 111.309C109.981 111.964 108.446 113.491 106.576 114.701C103.665 116.586 103.092 116.682 102.588 115.37C101.712 113.085 101.783 113 104.594 113C106.341 113 107.357 112.351 107.707 111.011C108.243 108.961 110.01 109.192 109.988 111.309ZM198.495 114.25L199.894 117.5L200.579 114.215C201.233 111.079 201.35 111.006 203.132 112.62C206.904 116.033 204.718 124.867 198.274 132.253C196.473 134.317 195 136.454 195 137.003C195 137.551 194.03 138 192.845 138C190.821 138 190.79 137.889 192.345 136.171C194.3 134.011 194.463 131.863 192.799 130.199C191.04 128.44 191.836 120.392 194.16 116.454C195.259 114.59 195.871 112.601 195.52 112.033C195.169 111.465 195.38 111 195.989 111C196.598 111 197.726 112.463 198.495 114.25ZM163.746 115.474L160.992 116.603L163.746 118.675C166.497 120.744 166.498 120.749 164.543 122.93L162.586 125.114L161.787 122.953C161.264 121.539 160.448 120.998 159.428 121.389C158.194 121.863 158.017 121.522 158.579 119.752C159.21 117.764 159.106 117.668 157.644 118.88C155.142 120.957 155.627 123 158.622 123C160.84 123 161.053 123.232 160 124.5C159.315 125.325 159.09 126 159.5 126C159.91 126 159.676 126.686 158.981 127.523C157.883 128.846 157.404 128.588 155.354 125.57L152.992 122.094L157.746 117.227C161.754 113.125 162.814 112.517 164.5 113.353C166.398 114.295 166.36 114.403 163.746 115.474ZM111.785 116.759C111.052 117.643 110.351 117.751 109.685 117.085C109.018 116.418 109.125 115.555 110.004 114.495C111.03 113.259 111.497 113.187 112.105 114.169C112.534 114.864 112.39 116.03 111.785 116.759ZM193.122 115.675C192.251 117.174 192.055 117.217 192.03 115.917C191.998 114.233 193.05 112.716 193.758 113.425C193.992 113.659 193.706 114.671 193.122 115.675ZM168.2 118.2C167.267 119.133 166.733 119.133 165.8 118.2C164.867 117.267 165.133 117 167 117C168.867 117 169.133 117.267 168.2 118.2ZM191 123.5C191 124.325 190.55 125 190 125C189.45 125 189 124.325 189 123.5C189 122.675 189.45 122 190 122C190.55 122 191 122.675 191 123.5ZM115 123.759C115 124.869 118.68 126.987 119.384 126.283C120.239 125.428 118.016 123 116.378 123C115.62 123 115 123.342 115 123.759ZM119.836 124.294C121.614 126.448 120.371 128.244 117.666 127.428C115.997 126.925 115.763 127.052 116.644 127.981C117.273 128.645 118.623 129.027 119.644 128.83C121.917 128.392 122.199 123.898 120 123.171C118.729 122.75 118.704 122.922 119.836 124.294ZM152.872 124.917C153.077 124.963 152.676 125.685 151.981 126.523C150.923 127.797 150.987 127.942 152.369 127.412C153.657 126.918 153.944 127.283 153.672 129.069C153.277 131.652 151.02 132.827 146.25 132.93C142.269 133.016 142.029 131.307 145.451 127.24C147.606 124.68 149.36 124.131 152.872 124.917ZM142.02 129.963C141.351 131.213 140.38 131.699 139.344 131.302C137.886 130.742 137.907 130.541 139.551 129.339C142.176 127.42 143.238 127.688 142.02 129.963ZM126 131C126 131.55 126.45 132 127 132C127.55 132 128 131.55 128 131C128 130.45 127.55 130 127 130C126.45 130 126 130.45 126 131ZM192.559 132.096C192.932 132.699 192.508 133.92 191.618 134.81C190.127 136.301 189.873 136.301 188.382 134.81C186.492 132.92 187.307 131 190 131C191.035 131 192.187 131.493 192.559 132.096ZM111.5 137C111.5 138.65 111.215 140 110.867 140C110.047 140 109.123 135.21 109.81 134.524C110.967 133.366 111.5 134.147 111.5 137ZM135 135.559C135 136.416 135.457 136.835 136.016 136.49C136.575 136.144 136.774 135.443 136.457 134.931C135.6 133.544 135 133.802 135 135.559ZM162.463 136.06C163.567 134.273 164.509 134.861 165.732 138.1C166.99 141.433 169.5 141.644 169.5 138.417C169.5 137.16 168.861 136.554 167.643 136.657C166.331 136.767 166.099 136.501 166.851 135.749C167.603 134.997 168.367 135.06 169.458 135.965C171.413 137.588 171.422 139.405 169.481 141.016C168.241 142.045 167.618 141.964 166.085 140.577C164.623 139.254 164.091 139.168 163.683 140.189C163.335 141.058 163.131 140.92 163.079 139.781C163.028 138.679 162.462 138.269 161.5 138.638C160.633 138.971 159.97 138.641 159.93 137.857C159.891 137.111 159.473 137.4 159 138.5C158.221 140.312 158.134 140.257 158.07 137.917C157.979 134.559 159.137 133.466 160.627 135.504C161.386 136.543 162.042 136.741 162.463 136.06ZM104.25 135.662C102.398 136.41 102.735 137.998 104.75 138.015C106.248 138.028 106.284 138.172 105 139.015C103.667 139.891 103.667 140.109 105 140.985C106.304 141.84 106.285 141.971 104.858 141.985C103.927 141.993 102.941 140.899 102.578 139.454C101.864 136.611 102.517 134.96 104.309 135.079C105.168 135.136 105.151 135.299 104.25 135.662ZM98.832 140.632C98.349 143.142 94.933 143.628 93.316 141.418C91.747 139.271 91.629 138 93 138C93.55 138 94 138.9 94 140C94 141.368 94.667 142 96.108 142C97.906 142 98.117 141.595 97.538 139.25C97.023 137.164 97.14 136.776 98.023 137.644C98.664 138.273 99.028 139.618 98.832 140.632ZM174.829 139.097C175.549 140.251 175.878 141.456 175.559 141.774C174.963 142.37 172.089 139.091 172.032 137.75C171.969 136.278 173.541 137.035 174.829 139.097ZM89.208 138.676C88.216 139.074 88.187 139.52 89.081 140.597C89.721 141.369 89.852 142.032 89.372 142.07C88.893 142.109 89.4 142.527 90.5 143C92.445 143.836 92.441 143.861 90.357 143.93C88.27 143.998 87 142.292 87 139.418C87 138.638 87.787 138.036 88.75 138.079C89.863 138.129 90.03 138.347 89.208 138.676ZM182.5 141.07C182.5 142.563 181.838 143.6 180.75 143.81C179.475 144.055 179 143.494 179 141.74C179 140.416 179.309 139.024 179.688 138.646C180.98 137.354 182.5 138.664 182.5 141.07ZM85.914 144C85.963 145.333 85.862 145.333 85 144C84.467 143.175 84.055 141.6 84.086 140.5L84.141 138.5L85 140.5C85.473 141.6 85.884 143.175 85.914 144ZM180 141C180 142.1 180.45 143 181 143C181.55 143 182 142.1 182 141C182 139.9 181.55 139 181 139C180.45 139 180 139.9 180 141ZM187.495 139.992C187.832 140.538 187.648 141.775 187.085 142.742C186.521 143.709 186.04 144.05 186.015 143.5C185.99 142.95 185.533 143.175 185 144C184.162 145.297 184.029 145.274 184.015 143.832C183.98 139.995 186.071 137.688 187.495 139.992ZM82.375 142.222C83.179 143.504 83.112 144.272 82.115 145.222C81.008 146.278 80.894 146.108 81.457 144.245C81.939 142.648 81.667 141.81 80.526 141.372C78.236 140.493 77.794 141.329 78.947 144.361C79.499 145.813 79.56 147 79.082 147C78.01 147 77 144.501 77 141.849C77 139.373 80.753 139.634 82.375 142.222ZM194.062 140.82C195.173 141.303 195.431 142.223 194.956 144L194.287 146.5L193.535 143.75C193.122 142.238 192.157 141 191.392 141C189.662 141 189.543 144.649 191.25 145.338C192.229 145.733 192.222 145.859 191.219 145.921C189.637 146.019 188.587 143.519 189.362 141.5C189.97 139.916 191.481 139.697 194.062 140.82ZM198.985 142.75C198.976 143.713 198.524 145.175 197.98 146C197.236 147.127 197.044 146.692 197.208 144.25C197.431 140.924 199.012 139.588 198.985 142.75ZM135.5 144C135.84 144.55 136.316 145 136.559 145C136.802 145 137 144.55 137 144C137 143.45 136.523 143 135.941 143C135.359 143 135.16 143.45 135.5 144ZM133.29 151C133.612 152.231 134.654 153 136 153C137.346 153 138.388 152.231 138.71 151C138.998 149.9 139.911 149 140.739 149C142.064 149 142.07 149.262 140.787 151.195C139.985 152.402 138.58 153.862 137.665 154.44C135.703 155.677 133.431 154.534 131.213 151.195C129.93 149.262 129.936 149 131.261 149C132.089 149 133.002 149.9 133.29 151ZM142.124 153.267C141.136 154.247 141.022 154.132 141.564 152.707C141.94 151.721 142.499 151.166 142.807 151.474C143.115 151.781 142.808 152.588 142.124 153.267Z" fill="black"/>
</svg>
